<svg width="50" height="49" viewBox="0 0 50 49" fill="none" xmlns="http://www.w3.org/2000/svg">
<path d="M49 25C49 38.2548 38.2548 49 25 49C11.7452 49 1 38.2548 1 25C1 11.7452 11.7452 1 25 1C38.2548 1 49 11.7452 49 25Z" stroke="#F92251" stroke-width="2"/>
<path fill-rule="evenodd" clip-rule="evenodd" d="M29.2763 32.8948L24.6711 29.9822L20.0658 32.8948C19.4299 32.8948 18.9145 32.3732 18.9145 31.7297V20.0795C18.9145 19.4361 19.4299 18.9145 20.0658 18.9145H29.2763C29.9122 18.9145 30.4276 19.4361 30.4276 20.0795V31.7297C30.4276 32.3732 29.9122 32.8948 29.2763 32.8948ZM29.2763 20.0795H20.0658V31.7297L24.6711 28.8172L29.2763 31.7297V20.0795Z" fill="white"/>
</svg>
