<svg width="277" height="29" viewBox="0 0 277 29" fill="none" xmlns="http://www.w3.org/2000/svg">
<g clip-path="url(#clip0)">
<path d="M225.942 19.5654V16.4694H218.262V15.0294L222.774 3.72537H224.79L220.206 14.8374H225.942V9.89337H227.79V14.8374H229.806V16.4694H227.79V19.5654H225.942ZM232.339 19.5654V16.8294H234.307V19.5654H232.339ZM242.607 3.46137C243.919 3.46137 244.983 3.70937 245.799 4.20537C247.527 5.22937 248.391 7.78937 248.391 11.8854C248.391 14.7814 247.911 16.8294 246.951 18.0294C245.991 19.2134 244.551 19.8054 242.631 19.8054C240.711 19.8054 239.263 19.2214 238.287 18.0534C237.327 16.8694 236.847 14.7734 236.847 11.7654C236.847 8.74137 237.319 6.60537 238.263 5.35737C239.223 4.09337 240.671 3.46137 242.607 3.46137ZM242.631 5.11737C241.719 5.11737 240.999 5.30937 240.471 5.69337C239.335 6.47737 238.767 8.54937 238.767 11.9094C238.767 14.2774 239.079 15.9174 239.703 16.8294C240.327 17.7254 241.303 18.1734 242.631 18.1734C243.959 18.1734 244.935 17.7174 245.559 16.8054C246.183 15.8934 246.495 14.2054 246.495 11.7414C246.495 9.26137 246.191 7.54137 245.583 6.58137C244.991 5.60537 244.007 5.11737 242.631 5.11737ZM250.109 19.3254L256.877 2.57337L258.485 3.17337L251.717 19.9014L250.109 19.3254ZM270.679 3.72537V5.40537H262.975L262.543 10.5654C263.775 9.90937 265.015 9.58137 266.263 9.58137C269.623 9.58137 271.303 11.1414 271.303 14.2614C271.303 16.0534 270.839 17.4214 269.911 18.3654C268.983 19.3094 267.679 19.7814 265.999 19.7814C264.655 19.7814 263.167 19.6054 261.535 19.2534L260.743 19.0854L260.959 17.6214C262.799 17.9734 264.343 18.1494 265.591 18.1494C266.855 18.1494 267.807 17.8294 268.447 17.1894C269.087 16.5334 269.407 15.6214 269.407 14.4534C269.407 13.2854 269.111 12.4614 268.519 11.9814C267.943 11.4854 267.119 11.2374 266.047 11.2374C265.471 11.2374 264.863 11.3174 264.223 11.4774C263.599 11.6374 263.119 11.7974 262.783 11.9574L262.279 12.1974L261.007 11.9574L261.439 3.72537H270.679Z" fill="#F6F6F6"/>
<path fill-rule="evenodd" clip-rule="evenodd" d="M18.9369 15.5568C18.8231 14.9711 19.0383 14.3733 19.5149 13.9504L25.1068 8.89037L17.4667 7.85944C16.7685 7.76136 16.1709 7.36711 15.8708 6.80649L12.5534 0.562561L9.23597 6.80539C8.93616 7.36644 8.33857 7.76113 7.64009 7.85944L0 8.88927L5.59184 13.9504C6.06849 14.3733 6.28361 14.9711 6.16988 15.5568L4.87559 22.5797L11.523 19.334C12.1636 19.0215 12.9432 19.0215 13.5838 19.334L20.2312 22.5797L18.9369 15.5568Z" fill="#F92251"/>
<path fill-rule="evenodd" clip-rule="evenodd" d="M59.0437 15.5568C58.93 14.9711 59.1451 14.3733 59.6217 13.9504L65.2136 8.89037L57.5735 7.85944C56.8753 7.76136 56.2777 7.36711 55.9776 6.80649L52.6602 0.562561L49.3428 6.80539C49.043 7.36644 48.4454 7.76113 47.7469 7.85944L40.1068 8.88927L45.6987 13.9504C46.1753 14.3733 46.3904 14.9711 46.2767 15.5568L44.9824 22.5797L51.6298 19.334C52.2704 19.0215 53.05 19.0215 53.6906 19.334L60.338 22.5797L59.0437 15.5568Z" fill="#F92251"/>
<path fill-rule="evenodd" clip-rule="evenodd" d="M99.1505 15.5568C99.0368 14.9711 99.2519 14.3733 99.7285 13.9504L105.32 8.89037L97.6803 7.85944C96.9821 7.76136 96.3845 7.36711 96.0844 6.80649L92.767 0.562561L89.4496 6.80539C89.1498 7.36644 88.5522 7.76113 87.8537 7.85944L80.2136 8.88927L85.8055 13.9504C86.2821 14.3733 86.4972 14.9711 86.3835 15.5568L85.0892 22.5797L91.7366 19.334C92.3772 19.0215 93.1568 19.0215 93.7974 19.334L100.445 22.5797L99.1505 15.5568Z" fill="#F92251"/>
<path fill-rule="evenodd" clip-rule="evenodd" d="M139.257 15.5568C139.143 14.9711 139.359 14.3733 139.835 13.9504L145.427 8.89037L137.787 7.85944C137.089 7.76136 136.491 7.36711 136.191 6.80649L132.874 0.562561L129.556 6.80539C129.256 7.36644 128.659 7.76113 127.96 7.85944L120.32 8.88927L125.912 13.9504C126.389 14.3733 126.604 14.9711 126.49 15.5568L125.196 22.5797L131.843 19.334C132.484 19.0215 133.264 19.0215 133.904 19.334L140.551 22.5797L139.257 15.5568Z" fill="#F92251"/>
<path fill-rule="evenodd" clip-rule="evenodd" d="M184.148 8.33583C183.943 7.80021 183.416 7.40854 182.779 7.31955L176.578 6.48741L173.89 1.43291C173.608 0.902119 173.001 0.562561 172.332 0.562561C171.664 0.562561 171.056 0.902119 170.775 1.43291L168.086 6.48567L161.886 7.31781C161.248 7.40724 160.72 7.79973 160.516 8.33618C160.312 8.87263 160.465 9.46404 160.914 9.87068L165.458 13.9671L164.406 19.6505C164.294 20.2214 164.567 20.7976 165.107 21.1325C165.646 21.4674 166.358 21.5014 166.936 21.2201L172.332 18.5916L177.729 21.2201C177.985 21.3423 178.271 21.4074 178.563 21.4094C179.069 21.4087 179.549 21.2129 179.876 20.8741C180.203 20.5353 180.343 20.0878 180.259 19.6505L179.207 13.9671L183.751 9.87068C184.2 9.46398 184.353 8.8722 184.148 8.33583ZM177.828 12.8666C177.359 13.3743 177.282 13.6723 177.372 14.1347L178.394 19.6791L173.146 17.1167C172.64 16.87 172.025 16.87 171.519 17.1167L166.271 19.6791L167.293 14.1347C167.383 13.6723 167.213 13.2004 166.837 12.8666L162.422 8.8709L168.454 8.05787C169.005 7.98027 169.477 7.66867 169.713 7.22574L172.332 2.29718L174.951 7.2266C175.188 7.6692 175.66 7.98045 176.211 8.05787L182.243 8.87177C182.243 8.87177 179.794 10.7428 177.828 12.8666Z" fill="#F92251"/>
</g>
<defs>
<clipPath id="clip0">
<rect y="0.675354" width="277" height="27.4219" fill="white"/>
</clipPath>
</defs>
</svg>
