<svg width="20" height="18" viewBox="0 0 20 18" fill="none" xmlns="http://www.w3.org/2000/svg">
<path fill-rule="evenodd" clip-rule="evenodd" d="M0.53334 8C0.53334 3.58172 4.0372 0 8.35943 0C12.6817 0 16.1855 3.58172 16.1855 8C16.2206 9.78381 15.6308 11.5217 14.5225 12.9L19.7073 18.2C20.0381 18.5749 20.0436 19.1432 19.7201 19.5247C19.3966 19.9063 18.8456 19.9815 18.4355 19.7L18.3377 19.6L13.1529 14.3C11.7885 15.4034 10.0991 16.0025 8.35943 16C4.0372 16 0.53334 12.4183 0.53334 8ZM2.48986 8C2.48986 11.3137 5.11776 14 8.35943 14C9.91613 14 11.4091 13.3679 12.5098 12.2426C13.6106 11.1174 14.229 9.5913 14.229 8C14.229 4.68629 11.6011 2 8.35943 2C5.11776 2 2.48986 4.68629 2.48986 8Z" fill="white"/>
</svg>
