<svg width="50" height="49" viewBox="0 0 50 49" fill="none" xmlns="http://www.w3.org/2000/svg">
<g id="icon">
<path id="Oval" fill-rule="evenodd" clip-rule="evenodd" d="M24.7389 49.8361C38.4018 49.8361 49.4778 38.6799 49.4778 24.918C49.4778 11.1562 38.4018 0 24.7389 0C11.076 0 0 11.1562 0 24.918C0 38.6799 11.076 49.8361 24.7389 49.8361Z" fill="#F92251"/>
<path id="Icon-Shape" fill-rule="evenodd" clip-rule="evenodd" d="M21.1583 32.1514C21.1583 32.6581 21.6829 32.9599 22.0743 32.6797L31.4742 25.9484C31.8249 25.6979 31.8249 25.1443 31.4754 24.8932L22.0754 18.1404C21.6835 17.8595 21.1583 18.1613 21.1583 18.668V32.1514Z" fill="white"/>
<mask id="mask0" mask-type="alpha" maskUnits="userSpaceOnUse" x="21" y="18" width="11" height="15">
<path id="Icon-Shape_2" fill-rule="evenodd" clip-rule="evenodd" d="M21.1583 32.1514C21.1583 32.6581 21.6829 32.9599 22.0743 32.6797L31.4742 25.9484C31.8249 25.6979 31.8249 25.1443 31.4754 24.8932L22.0754 18.1404C21.6835 17.8595 21.1583 18.1613 21.1583 18.668V32.1514Z" fill="white"/>
</mask>
<g mask="url(#mask0)">
</g>
</g>
</svg>
